<svg width="640" height="196" viewBox="0 0 640 196" fill="none" xmlns="http://www.w3.org/2000/svg">
<path d="M73.928 73.51V69.47C60.45 69.47 46.22 72.35 46.22 88.24C46.22 96.29 50.39 101.74 57.54 101.74C62.79 101.74 67.48 98.52 70.44 93.28C74.112 86.83 73.928 80.77 73.928 73.51ZM92.726 118.94C91.494 120.04 89.711 120.12 88.321 119.39C82.135 114.25 81.034 111.86 77.626 106.96C67.4 117.4 60.16 120.52 46.9 120.52C31.22 120.52 19 110.84 19 91.47C19 76.34 27.21 66.04 38.88 61C49 56.55 63.13 55.76 73.928 54.53V52.12C73.928 47.68 74.268 42.44 71.674 38.61C69.39 35.18 65.04 33.76 61.21 33.76C54.11 33.76 47.76 37.41 46.22 44.96C45.9 46.64 44.67 48.29 42.99 48.37L24.9 46.43C23.38 46.09 21.7 44.85 22.12 42.52C26.29 20.6 46.09 14 63.81 14C72.88 14 84.73 16.41 91.887 23.28C100.957 31.74 100.093 43.04 100.093 55.34V84.39C100.093 93.12 103.711 96.95 107.119 101.67C108.324 103.34 108.586 105.36 107.069 106.62C103.267 109.79 96.503 115.69 92.779 118.99H92.729M318.299 73.51V69.47C304.789 69.47 290.559 72.35 290.559 88.24C290.559 96.29 294.749 101.74 301.909 101.74C307.129 101.74 311.849 98.52 314.809 93.28C318.479 86.83 318.299 80.77 318.299 73.51ZM337.089 118.94C335.859 120.04 334.079 120.12 332.689 119.39C326.499 114.25 325.369 111.86 321.989 106.96C311.769 117.4 304.509 120.52 291.269 120.52C275.559 120.52 263.369 110.84 263.369 91.47C263.369 76.34 271.549 66.04 283.239 61C293.359 56.55 307.489 55.76 318.299 54.53V52.12C318.299 47.68 318.639 42.44 316.009 38.61C313.759 35.18 309.409 33.76 305.549 33.76C298.449 33.76 292.129 37.41 290.579 44.96C290.269 46.64 289.039 48.29 287.329 48.37L269.269 46.43C267.749 46.09 266.039 44.85 266.489 42.52C270.629 20.6 290.449 14 308.179 14C317.249 14 329.099 16.41 336.249 23.28C345.329 31.74 344.459 43.04 344.459 55.34V84.39C344.459 93.12 348.079 96.95 351.489 101.67C352.669 103.34 352.929 105.36 351.389 106.62C347.589 109.79 340.819 115.69 337.099 118.99M566.649 119.2H548.089C546.219 119.07 544.729 117.58 544.729 115.74V20.05C544.889 18.3 546.439 16.93 548.329 16.93H565.599C567.229 17.03 568.569 18.11 568.929 19.61V34.24H569.269C574.489 21.15 581.799 14.91 594.679 14.91C603.039 14.91 611.189 17.93 616.439 26.19C621.309 33.84 621.309 46.71 621.309 55.97V116.19C621.099 117.87 619.559 119.2 617.719 119.2H599.029C597.329 119.07 595.909 117.81 595.729 116.19V64.23C595.729 53.77 596.929 38.46 584.059 38.46C579.519 38.46 575.359 41.5 573.279 46.11C570.659 51.96 570.319 57.78 570.319 64.23V115.74C570.319 117.66 568.669 119.2 566.679 119.2M488.15 14.91C515.81 14.91 530.78 38.67 530.78 68.87C530.78 98.05 514.24 121.2 488.15 121.2C460.99 121.2 446.21 97.44 446.21 67.85C446.21 38.06 461.18 14.91 488.15 14.91ZM488.31 34.45C474.57 34.45 473.71 53.16 473.71 64.83C473.71 76.52 473.53 101.48 488.15 101.48C502.6 101.48 503.28 81.35 503.28 69.08C503.28 61 502.94 51.36 500.5 43.7C498.41 37.04 494.24 34.45 488.31 34.45ZM143.64 119.2H125C123.22 119.07 121.8 117.74 121.67 116.03V20.37C121.67 18.45 123.27 16.93 125.26 16.93H142.64C144.45 17.03 145.89 18.4 146.02 20.13V32.64H146.36C150.9 20.55 159.42 14.91 170.9 14.91C182.57 14.91 189.86 20.55 195.1 32.64C199.61 20.55 209.86 14.91 220.85 14.91C228.66 14.91 237.21 18.14 242.42 25.37C248.32 33.42 247.12 45.12 247.12 55.37V115.74C247.12 117.66 245.52 119.2 243.52 119.2H224.91C223.05 119.07 221.55 117.58 221.55 115.74V65.04C221.55 61 221.92 50.94 221.03 47.11C219.64 40.68 215.47 38.88 210.07 38.88C205.56 38.88 200.84 41.89 198.93 46.71C197.02 51.54 197.2 59.61 197.2 65.04V115.74C197.2 117.66 195.6 119.2 193.61 119.2H175C173.11 119.07 171.64 117.58 171.64 115.74V65.04C171.64 54.37 173.39 38.67 160.15 38.67C146.76 38.67 147.28 53.98 147.28 65.04V115.74C147.28 117.66 145.68 119.2 143.69 119.2M367.14 33.82V20.13C367.14 18.06 368.71 16.67 370.6 16.67H431.87C433.83 16.67 435.41 18.09 435.41 20.13V31.85C435.41 33.82 433.73 36.39 430.79 40.45L399.04 85.78C410.84 85.49 423.29 87.25 433.99 93.28C436.4 94.64 437.06 96.63 437.24 98.6V113.2C437.24 115.19 435.04 117.53 432.73 116.32C413.88 106.44 388.84 105.36 368 116.43C365.88 117.58 363.65 115.27 363.65 113.28V99.41C363.65 97.18 363.65 93.38 365.91 90L402.69 37.25H370.68C368.71 37.25 367.14 35.86 367.14 33.82ZM407.2 139.29C402.74 133.57 377.62 136.59 366.35 137.92C362.92 138.34 362.39 135.35 365.49 133.2C385.49 119.13 418.31 123.19 422.14 127.91C425.97 132.65 421.14 165.56 402.35 181.26C399.46 183.67 396.71 182.39 397.99 179.19C402.22 168.65 411.68 145.03 407.2 139.29ZM392.65 155.93C398.44 151.63 393.49 145.24 387.56 147.75C348.34 164.4 305.69 172.42 266.91 172.42C209.42 172.42 153.76 156.67 108.744 130.48C104.812 128.17 101.874 132.21 105.154 135.17C146.86 172.84 202 195.5 263.24 195.5C306.92 195.5 357.65 181.73 392.65 155.93Z" fill="black"/>
</svg>
