<svg width="652" height="71" viewBox="0 0 652 71" fill="none" xmlns="http://www.w3.org/2000/svg">
<g clip-path="url(#clip0_3_19)">
<path fill-rule="evenodd" clip-rule="evenodd" d="M53.2968 0C53.9154 0 54.3333 0.405118 54.3333 1.01488V10.3451C54.3333 10.9549 53.9154 11.36 53.2968 11.36H12.3378V30.4298H45.9367C46.5553 30.4298 46.9733 30.8349 46.9733 31.4446V40.7749C46.9733 41.3846 46.5553 41.7898 45.9367 41.7898H12.3378V69.9851C12.3378 70.5949 11.9241 71 11.3013 71H1.03651C0.417949 71 0 70.5949 0 69.9851V1.01488C0 0.405118 0.417949 0 1.03651 0H53.2968ZM107.68 0C108.161 0 108.545 0.204647 108.738 0.71C118.279 22.4151 127.625 47.2651 133.693 69.8849C133.886 70.5949 133.501 71 132.828 71H122.325C121.744 71 121.364 70.6951 121.264 70.0854C119.765 63.9876 118.094 57.9334 116.252 51.9302H83.9743C82.1337 57.9334 80.464 63.9875 78.9672 70.0854C78.8711 70.6951 78.4824 71 77.9056 71H67.7913C67.1142 71 66.7297 70.5949 66.9219 69.8849C72.9906 47.2651 82.3359 22.4151 91.8735 0.71C92.0699 0.204647 92.4544 0 92.9351 0H107.68ZM185.527 0C198.279 0 208.038 6.41088 213.062 16.6641C213.254 17.2572 213.158 17.6498 212.481 17.9463L203.303 21.5965C202.822 21.7928 202.342 21.5965 202.049 21.1037C198.664 14.6928 192.77 11.0426 184.85 11.0426H183.404C171.326 11.0426 162.532 20.8072 162.532 36.0931C162.532 50.5854 171.714 59.9574 183.404 59.9574H184.85C192.582 59.9574 198.183 57.1926 201.468 52.3646C201.857 51.8676 202.241 51.7715 202.722 51.9678L212.289 55.4176C212.87 55.6181 213.062 56.2111 212.774 56.8C207.553 65.675 197.798 71 185.043 71H183.597C163.121 71 150.462 56.9002 150.462 36.0931C150.462 15.1856 163.89 0 184.081 0H185.527ZM290.667 0C291.264 0 291.661 0.405118 291.661 1.01488V10.3451C291.661 10.9549 291.264 11.36 290.667 11.36H250.092V29.82H283.089C283.687 29.82 284.084 30.2251 284.084 30.8349V40.0649C284.084 40.6747 283.687 41.0798 283.089 41.0798H250.092V59.64H291.561C292.163 59.64 292.56 60.0451 292.56 60.6549V69.9851C292.56 70.5949 292.163 71 291.561 71H239.234C238.632 71 238.235 70.5949 238.235 69.9851V1.01488C238.235 0.405118 238.632 0 239.234 0H290.675H290.667ZM350.717 0C367.465 0 376.141 6.59465 376.141 18.2554C376.141 25.2551 373.078 31.0354 364.096 33.6749C375.431 36.21 380.333 42.8046 380.333 51.5251C380.333 63.7998 370.938 71 353.785 71H318.661C318.051 71 317.641 70.5949 317.641 69.9851V1.01488C317.641 0.405118 318.051 0 318.661 0H350.717ZM437.525 0C458.732 0 472.282 14.8891 472.282 35.5C472.282 56.2069 458.732 71 437.53 71H436.079C414.785 71 401.231 56.2069 401.231 35.5C401.231 14.8891 414.785 0 436.079 0H437.525ZM529.474 0C550.677 0 564.231 14.8891 564.231 35.5C564.231 56.2069 550.677 71 529.478 71H528.028C506.734 71 493.179 56.2069 493.179 35.5C493.179 14.8891 506.734 0 528.028 0H529.474ZM600.337 0C600.943 0 601.349 0.405118 601.349 1.01488V29.11H608.228C618.146 19.9802 626.952 10.3451 634.241 0.609765C634.405 0.421975 634.607 0.270661 634.833 0.165621C635.059 0.0605806 635.304 0.00415586 635.554 0L648.004 0C648.815 0 649.116 0.505353 648.61 1.11512C639.604 12.78 629.176 23.7349 617.64 34.3849C629.786 45.1351 641.326 57.2051 651.745 69.7846C652.255 70.3902 651.954 71 651.143 71H637.882C637.632 70.9958 637.387 70.9394 637.161 70.8344C636.935 70.7293 636.733 70.578 636.569 70.3902C627.563 59.2349 617.135 48.5849 608.232 40.5702H601.349V69.9851C601.349 70.5949 600.943 71 600.337 71H590.315C589.709 71 589.303 70.5949 589.303 69.9851V1.01488C589.303 0.405118 589.709 0 590.315 0H600.337ZM353.685 40.8751H329.791V59.9449H353.99C363.281 59.9449 367.874 56.8 367.874 50.6147C367.874 44.2247 364.61 40.8751 353.685 40.8751ZM437.53 11.2431H436.079C422.237 11.2431 413.427 20.8072 413.427 35.5C413.427 50.1928 422.141 59.7569 436.079 59.7569H437.53C451.372 59.7569 460.086 50.1928 460.086 35.5C460.086 20.8072 451.276 11.2431 437.53 11.2431ZM529.478 11.2431H528.028C514.186 11.2431 505.375 20.8072 505.375 35.5C505.375 50.1928 514.089 59.7569 528.028 59.7569H529.478C543.321 59.7569 552.035 50.1928 552.035 35.5C552.035 20.8072 543.225 11.2431 529.478 11.2431ZM101.227 11.1595H98.9159C94.7658 20.9584 90.9738 30.905 87.5477 40.9795H112.692C109.192 30.919 105.368 20.9738 101.227 11.1595ZM350.421 11.0551H329.795V30.1249H350.931C360.121 30.1249 363.9 26.8798 363.9 20.6902C363.9 14.2 359.917 11.0551 350.421 11.0551Z" fill="black"/>
</g>
<defs>
<clipPath id="clip0_3_19">
<rect width="652" height="71" fill="white"/>
</clipPath>
</defs>
</svg>
