<svg width="344" height="126" viewBox="0 0 344 126" fill="none" xmlns="http://www.w3.org/2000/svg">
<path d="M225.6 82.57V22H212.6V93.77C222.8 94.28 233.2 94.78 243.1 95.29V83.59C237.3 83.08 231.4 82.82 225.6 82.57ZM107.8 33.7V22H77.23V97.07C87.41 96.31 97.59 95.55 107.8 94.78V83.08C101.9 83.33 96.06 83.84 90.21 84.35V65.52H105.5V53.56H90.21V33.7H107.8ZM34.22 101.7V56.86L49.49 99.87C54.07 99.37 58.65 98.86 63.49 98.35V22H51.02V68.32L34.73 22H22V103.2L34.22 101.7ZM132.2 93.77C136.5 93.51 140.8 93.51 145.2 93.26V33.7H157.1V22H120.2V33.7H132.2V93.77ZM172.1 93H182.3V65.52H197.8V53.56H182.3V33.7H200.1V22H169.6V93H172.1ZM268.3 97.33V22H255.6V96.06C259.7 96.57 264 96.82 268.3 97.33ZM278 98.09C282.1 98.6 286.4 98.86 290.5 99.37L299.6 76.72L308.6 101.4C312.9 102.2 317.5 102.7 322 103.2L306.5 59.66L322 22H308.8L300.4 42.61L293.3 22H280.3L293.8 59.41L278 98.09Z" fill="black"/>
</svg>
